<svg width="64" height="576" viewBox="0 0 64 576" fill="none" xmlns="http://www.w3.org/2000/svg">
<g clip-path="url(#clip0_126_10)">
<path d="M29 513H32H35L42 519.944V538.296L50 530.36H57L63 536.312V544.248L32 575L1 544.248V536.312L7 530.36H14L22 538.296V519.944L29 513Z" fill="white" stroke="black"/>
<path d="M30 518H32H34L38 521.962V548.705L52 534.838H55L59 538.8V543.257L32 570L5 543.257V538.8L9 534.838H12L26 548.705V521.962L30 518Z" fill="url(#paint0_linear_126_10)" stroke="black"/>
<path d="M29 449H32H35L42 455.944V474.296L50 466.36H57L63 472.312V480.248L32 511L1 480.248V472.312L7 466.36H14L22 474.296V455.944L29 449Z" fill="white" stroke="black"/>
<path d="M30 454H32H34L38 457.962V484.705L52 470.838H55L59 474.8V479.257L32 506L5 479.257V474.8L9 470.838H12L26 484.705V457.962L30 454Z" fill="url(#paint1_linear_126_10)" stroke="black"/>
<path d="M29 385H32H35L42 391.944V410.296L50 402.36H57L63 408.312V416.248L32 447L1 416.248V408.312L7 402.36H14L22 410.296V391.944L29 385Z" fill="white" stroke="black"/>
<path d="M30 390H32H34L38 393.962V420.705L52 406.838H55L59 410.8V415.257L32 442L5 415.257V410.8L9 406.838H12L26 420.705V393.962L30 390Z" fill="url(#paint2_linear_126_10)" stroke="black"/>
<path d="M29 321H32H35L42 327.944V346.296L50 338.36H57L63 344.312V352.248L32 383L1 352.248V344.312L7 338.36H14L22 346.296V327.944L29 321Z" fill="white" stroke="black"/>
<path d="M30 326H32H34L38 329.962V356.705L52 342.838H55L59 346.8V351.257L32 378L5 351.257V346.8L9 342.838H12L26 356.705V329.962L30 326Z" fill="url(#paint3_linear_126_10)" stroke="black"/>
<path d="M29 257H32H35L42 263.944V282.296L50 274.36H57L63 280.312V288.248L32 319L1 288.248V280.312L7 274.36H14L22 282.296V263.944L29 257Z" fill="white" stroke="black"/>
<path d="M30 262H32H34L38 265.962V292.705L52 278.838H55L59 282.8V287.257L32 314L5 287.257V282.8L9 278.838H12L26 292.705V265.962L30 262Z" fill="url(#paint4_linear_126_10)" stroke="black"/>
<path d="M29 193H32H35L42 199.944V218.296L50 210.36H57L63 216.312V224.248L32 255L1 224.248V216.312L7 210.36H14L22 218.296V199.944L29 193Z" fill="white" stroke="black"/>
<path d="M30 198H32H34L38 201.962V228.705L52 214.838H55L59 218.8V223.257L32 250L5 223.257V218.8L9 214.838H12L26 228.705V201.962L30 198Z" fill="url(#paint5_linear_126_10)" stroke="black"/>
<path d="M29 129H32H35L42 135.944V154.296L50 146.36H57L63 152.312V160.248L32 191L1 160.248V152.312L7 146.36H14L22 154.296V135.944L29 129Z" fill="white" stroke="black"/>
<path d="M30 134H32H34L38 137.962V164.705L52 150.838H55L59 154.8V159.257L32 186L5 159.257V154.8L9 150.838H12L26 164.705V137.962L30 134Z" fill="url(#paint6_linear_126_10)" stroke="black"/>
<path d="M29 65H32H35L42 71.944V90.296L50 82.36H57L63 88.312V96.248L32 127L1 96.248V88.312L7 82.36H14L22 90.296V71.944L29 65Z" fill="white" stroke="black"/>
<path d="M30 70H32H34L38 73.9619V100.705L52 86.8381H55L59 90.8V95.2571L32 122L5 95.2571V90.8L9 86.8381H12L26 100.705V73.9619L30 70Z" fill="url(#paint7_linear_126_10)" stroke="black"/>
<g clip-path="url(#clip1_126_10)">
<path d="M29 1H32H35L42 7.944V26.296L50 18.36H57L63 24.312V32.248L32 63L1 32.248V24.312L7 18.36H14L22 26.296V7.944L29 1Z" fill="white" stroke="black"/>
<path d="M30 6H32H34L38 9.96191V36.7048L52 22.8381H55L59 26.8V31.2571L32 58L5 31.2571V26.8L9 22.8381H12L26 36.7048V9.96191L30 6Z" fill="url(#paint8_linear_126_10)" stroke="black"/>
</g>
</g>
<defs>
<linearGradient id="paint0_linear_126_10" x1="32" y1="518" x2="32" y2="570" gradientUnits="userSpaceOnUse">
<stop stop-color="#848484" stop-opacity="0.3"/>
<stop offset="1" stop-color="#848484"/>
</linearGradient>
<linearGradient id="paint1_linear_126_10" x1="32" y1="454" x2="32" y2="506" gradientUnits="userSpaceOnUse">
<stop stop-color="#00C600" stop-opacity="0.3"/>
<stop offset="1" stop-color="#00C600"/>
</linearGradient>
<linearGradient id="paint2_linear_126_10" x1="32" y1="390" x2="32" y2="442" gradientUnits="userSpaceOnUse">
<stop stop-color="#00FFFF" stop-opacity="0.3"/>
<stop offset="1" stop-color="#00FFFF"/>
</linearGradient>
<linearGradient id="paint3_linear_126_10" x1="32" y1="326" x2="32" y2="378" gradientUnits="userSpaceOnUse">
<stop stop-color="#F7941D" stop-opacity="0.3"/>
<stop offset="1" stop-color="#F7941D"/>
</linearGradient>
<linearGradient id="paint4_linear_126_10" x1="32" y1="262" x2="32" y2="314" gradientUnits="userSpaceOnUse">
<stop stop-color="#FF00FF" stop-opacity="0.3"/>
<stop offset="1" stop-color="#FF00FF"/>
</linearGradient>
<linearGradient id="paint5_linear_126_10" x1="32" y1="198" x2="32" y2="250" gradientUnits="userSpaceOnUse">
<stop stop-color="#FFFF00" stop-opacity="0.3"/>
<stop offset="1" stop-color="#FFFF00"/>
</linearGradient>
<linearGradient id="paint6_linear_126_10" x1="32" y1="134" x2="32" y2="186" gradientUnits="userSpaceOnUse">
<stop stop-color="#662D91" stop-opacity="0.3"/>
<stop offset="1" stop-color="#662D91"/>
</linearGradient>
<linearGradient id="paint7_linear_126_10" x1="32" y1="70" x2="32" y2="122" gradientUnits="userSpaceOnUse">
<stop stop-color="#0000FF" stop-opacity="0.3"/>
<stop offset="1" stop-color="#0000FF"/>
</linearGradient>
<linearGradient id="paint8_linear_126_10" x1="32" y1="6" x2="32" y2="58" gradientUnits="userSpaceOnUse">
<stop stop-color="#FF0000" stop-opacity="0.3"/>
<stop offset="1" stop-color="#FF0000"/>
</linearGradient>
<clipPath id="clip0_126_10">
<rect width="64" height="576" fill="white"/>
</clipPath>
<clipPath id="clip1_126_10">
<rect width="64" height="64" fill="white"/>
</clipPath>
</defs>
</svg>
